<svg xmlns="http://www.w3.org/2000/svg" width="12.81" height="20" viewBox="0 0 12.81 20">
  <defs>
    <style>
      .cls-1 {
        fill: #fff;
        fill-rule: evenodd;
      }
    </style>
  </defs>
  <path id="Shape_663_copy_4" data-name="Shape 663 copy 4" class="cls-1" d="M1102,596.991a2.342,2.342,0,0,1,.72-1.682l7.89-7.625a2.524,2.524,0,0,1,3.48,0,2.324,2.324,0,0,1,0,3.363l-6.15,5.943,6.15,5.943a2.325,2.325,0,0,1,0,3.364,2.512,2.512,0,0,1-1.74.7,2.476,2.476,0,0,1-1.74-.7l-7.89-7.624A2.345,2.345,0,0,1,1102,596.991Z" transform="translate(-1102 -587)"/>
</svg>
